<?xml version="1.0" encoding="UTF-8" standalone="no"?>
<svg
   viewBox="0 0 511.99999 511.99997"
   x="0px"
   y="0px"
   version="1.1"
   id="svg18"
   sodipodi:docname="Brain Circuit Icon.svg"
   width="512"
   height="511.99997"
   inkscape:version="1.2.2 (b0a84865, 2022-12-01)"
   xmlns:inkscape="http://www.inkscape.org/namespaces/inkscape"
   xmlns:sodipodi="http://sodipodi.sourceforge.net/DTD/sodipodi-0.dtd"
   xmlns="http://www.w3.org/2000/svg"
   xmlns:svg="http://www.w3.org/2000/svg">
  <defs
     id="defs22" />
  <sodipodi:namedview
     id="namedview20"
     pagecolor="#ffffff"
     bordercolor="#000000"
     borderopacity="0.25"
     inkscape:showpageshadow="2"
     inkscape:pageopacity="0.0"
     inkscape:pagecheckerboard="0"
     inkscape:deskcolor="#d1d1d1"
     showgrid="false"
     inkscape:zoom="0.55377182"
     inkscape:cx="271.77259"
     inkscape:cy="313.30594"
     inkscape:window-width="1390"
     inkscape:window-height="923"
     inkscape:window-x="0"
     inkscape:window-y="31"
     inkscape:window-maximized="0"
     inkscape:current-layer="svg18" />
  <path
     d="m 134.04722,341.20834 c -20.56256,0 -37.291182,-16.72863 -37.291182,-37.29119 0,-4.45277 -3.610191,-8.06296 -8.06296,-8.06296 -4.452771,0 -8.062961,3.61019 -8.062961,8.06296 0,29.45399 23.963113,53.41711 53.417103,53.41711 4.45278,0 8.06296,-3.61019 8.06296,-8.06296 0,-4.45277 -3.61018,-8.06296 -8.06296,-8.06296 z"
     id="path2"
     style="stroke-width:1.00787" />
  <path
     d="m 217.57445,438.46779 c -20.56256,0 -37.29119,-16.72862 -37.29119,-37.29119 0,-4.45277 -3.61019,-8.06296 -8.06296,-8.06296 -4.45277,0 -8.06296,3.61019 -8.06296,8.06296 0,29.454 23.96312,53.41711 53.41711,53.41711 4.45277,0 8.06296,-3.61019 8.06296,-8.06296 0,-4.45277 -3.61019,-8.06296 -8.06296,-8.06296 z"
     id="path4"
     style="stroke-width:1.00787" />
  <path
     d="m 180.28326,247.96625 c 0,-4.45277 -3.61019,-8.06296 -8.06296,-8.06296 -20.56256,0 -37.29119,-16.72862 -37.29119,-37.29119 0,-20.56256 16.72863,-37.29119 37.29119,-37.29119 4.45277,0 8.06296,-3.61019 8.06296,-8.06296 0,-4.45277 -3.61019,-8.06296 -8.06296,-8.06296 -29.45399,0 -53.41711,23.96312 -53.41711,53.41711 0,29.454 23.96312,53.41711 53.41711,53.41711 4.45277,0 8.06296,-3.61019 8.06296,-8.06296 z"
     id="path6"
     style="stroke-width:1.00787" />
  <path
     d="m 164.15735,202.6121 c 0,4.45277 3.61018,8.06296 8.06295,8.06296 20.56257,0 37.2912,16.72863 37.2912,37.29119 0,20.56257 -16.72863,37.29119 -37.2912,37.29119 -4.45277,0 -8.06295,3.61019 -8.06295,8.06296 0,4.45277 3.61018,8.06296 8.06295,8.06296 29.454,0 53.41712,-23.96311 53.41712,-53.41711 0,-29.45399 -23.96312,-53.41711 -53.41712,-53.41711 -4.45277,0 -8.06295,3.61019 -8.06295,8.06296 z"
     id="path8"
     style="stroke-width:1.00787" />
  <path
     d="m 170.33054,358.84606 c 0,4.45277 3.61019,8.06296 8.06296,8.06296 4.45277,0 8.06296,-3.61019 8.06296,-8.06296 0,-13.33815 10.85174,-24.18888 24.18889,-24.18888 13.33715,0 24.18887,10.85073 24.18887,24.18888 0,4.45277 3.61019,8.06296 8.06297,8.06296 4.45277,0 8.06295,-3.61019 8.06295,-8.06296 0,-22.22958 -18.08521,-40.3148 -40.31479,-40.3148 -22.22958,0 -40.3148,18.08522 -40.31481,40.3148 z"
     id="path10"
     style="stroke-width:1.00787" />
  <path
     d="m 460.5971,344.68851 c -5.97262,0 -11.56732,1.63779 -16.36982,4.47999 l -34.36937,-34.36938 c -1.5118,-1.5118 -3.56282,-2.36144 -5.70153,-2.36144 h -120.9444 v -48.37776 h 63.50892 c 3.58902,13.8945 16.23073,24.18888 31.23086,24.18888 17.78387,0 32.25184,-14.46797 32.25184,-32.25184 0,-17.78386 -14.46797,-32.25184 -32.25184,-32.25184 -15.00113,0 -27.64184,10.29439 -31.23086,24.18888 h -63.50892 v -48.37776 h 120.9444 c 2.1387,0 4.18972,-0.84963 5.70152,-2.36144 l 34.36938,-34.36937 c 4.8025,2.84118 10.39719,4.47998 16.36982,4.47998 17.78387,0 32.25184,-14.46797 32.25184,-32.25184 0,-17.78387 -14.46797,-32.25184 -32.25184,-32.25184 -17.78386,0 -32.25184,14.46797 -32.25184,32.25184 0,5.97264 1.63779,11.56732 4.47898,16.36982 L 400.8163,183.43133 H 283.21198 v -42.33054 h 50.3935 c 2.1387,0 4.18972,-0.84963 5.70152,-2.36144 l 16.22772,-16.22771 c 4.8025,2.84118 10.39719,4.47998 16.36982,4.47998 17.78387,0 32.25184,-14.46798 32.25184,-32.25184 0,-17.783866 -14.46796,-32.25184 -32.25184,-32.25184 -17.78386,0 -32.25184,14.467974 -32.25184,32.25184 0,5.97264 1.63779,11.56732 4.47898,16.36982 L 330.2654,124.97588 H 283.21198 V 78.61386 C 283.21198,35.266379 247.9456,0 204.59812,0 185.56047,0 167.19304,6.8948387 152.87927,19.415608 140.41999,30.312698 131.75432,44.802845 128.04032,60.754404 97.720568,63.612723 73.536729,87.879209 70.808423,118.23524 c -30.299595,7.97226 -51.657368,35.25832 -51.657368,67.21385 0,18.67079 7.407844,36.31355 20.522248,49.32919 -2.889563,6.67109 -4.396328,13.89751 -4.396328,21.22171 0,7.32419 1.506765,14.55061 4.396328,21.22171 -13.114404,13.01563 -20.522248,30.65839 -20.522248,49.32919 0,31.95552 21.357773,59.24058 51.657368,67.21384 2.729312,30.35603 26.913153,54.62252 57.231897,57.48084 3.714,15.95055 12.37967,30.4407 24.83895,41.3388 14.31377,12.52076 32.6812,19.4156 51.71885,19.4156 43.34748,0 78.61386,-35.26638 78.61386,-78.61386 v -46.36202 h 47.05342 l 13.86628,13.86628 c -2.84118,4.8025 -4.47897,10.39719 -4.47897,16.36982 0,17.78387 14.46798,32.25184 32.25184,32.25184 17.78387,0 32.25184,-14.46797 32.25184,-32.25184 0,-17.78386 -14.46797,-32.25184 -32.25184,-32.25184 -5.97263,0 -11.56732,1.63779 -16.36982,4.47999 l -16.22772,-16.22772 c -1.5118,-1.5118 -3.56282,-2.36144 -5.70152,-2.36144 h -50.3935 V 328.56864 H 400.8163 l 32.00795,32.00794 c -2.84119,4.8025 -4.47898,10.39718 -4.47898,16.36982 0,17.78387 14.46798,32.25184 32.25184,32.25184 17.78387,0 32.25184,-14.46797 32.25184,-32.25184 0,-17.78386 -14.46797,-32.25184 -32.25184,-32.25184 z M 377.95176,239.87003 c 8.89143,0 16.12592,7.23349 16.12592,16.12592 0,8.89244 -7.23449,16.12592 -16.12592,16.12592 -8.89143,0 -16.12592,-7.23348 -16.12592,-16.12592 0,-8.89243 7.23449,-16.12592 16.12592,-16.12592 z m 82.64534,-120.9444 c 8.89144,0 16.12592,7.23349 16.12592,16.12592 0,8.89244 -7.23448,16.12592 -16.12592,16.12592 -8.89143,0 -16.12592,-7.23348 -16.12592,-16.12592 0,-8.89243 7.23449,-16.12592 16.12592,-16.12592 z M 371.90454,78.610836 c 8.89143,0 16.12592,7.233483 16.12592,16.12592 0,8.892434 -7.23449,16.125914 -16.12592,16.125914 -8.89143,0 -16.12592,-7.23348 -16.12592,-16.125914 0,-8.892437 7.23449,-16.12592 16.12592,-16.12592 z m 16.12592,338.644314 c 0,8.89244 -7.23449,16.12592 -16.12592,16.12592 -8.89143,0 -16.12592,-7.23348 -16.12592,-16.12592 0,-8.89243 7.23449,-16.12592 16.12592,-16.12592 8.89143,0 16.12592,7.23349 16.12592,16.12592 z m -183.43234,78.61386 c -30.89423,0 -57.48084,-23.02882 -61.8429,-53.56728 -0.56743,-3.97705 -3.97403,-6.92306 -7.98031,-6.92306 -0.0353,0 -0.0716,0 -0.10785,0 -0.1673,0.002 -0.33259,0.007 -0.49889,0.0131 l -0.12095,0.004 c -26.11995,0 -47.369882,-21.24993 -47.369882,-47.36485 l 0.02016,-0.70954 c 0.0635,-3.99621 -2.808934,-7.43506 -6.751721,-8.08413 -25.88311,-4.26127 -44.669806,-26.42131 -44.669806,-52.69144 0,-16.02413 7.104475,-31.06356 19.493213,-41.2622 3.067957,-2.52572 3.837969,-6.91097 1.813158,-10.33168 -3.389466,-5.72571 -5.180451,-12.2819 -5.180451,-18.95702 -0.167307,-20.03142 16.612721,-37.42121 37.29119,-37.29119 4.452769,0 8.06296,-3.61019 8.06296,-8.06296 0,-4.45277 -3.610191,-8.06296 -8.06296,-8.06296 -15.954582,0 -30.292541,7.03493 -40.089037,18.16081 -8.546738,-9.68866 -13.328073,-22.15803 -13.328073,-35.2946 0,-26.27014 18.786696,-48.43017 44.669806,-52.69145 3.942787,-0.64907 6.815217,-4.08893 6.751721,-8.08412 l -0.02016,-0.7035 c 0,-26.119953 21.249932,-47.369884 47.347712,-47.369884 l 0.14414,0.005 c 0.16629,0.006 0.33159,0.01109 0.49889,0.0131 0.0191,0 0.0373,-0.002 0.0554,-0.002 0.0171,0 0.0333,0.003 0.0504,0.003 26.11996,0 47.36989,21.249931 47.36989,47.369884 0,4.45277 3.61019,8.06296 8.06296,8.06296 4.45277,0 8.06296,-3.61019 8.06296,-8.06296 0,-31.679364 -23.32111,-58.010976 -53.69528,-62.736878 7.60941,-26.240903 32.05026,-45.123348 60.0247,-45.123348 34.45605,0 62.48794,28.031888 62.48794,62.48794 v 98.475956 c -9.63423,-9.40847 -22.79399,-15.22186 -37.29119,-15.22186 -4.45277,0 -8.06296,3.61019 -8.06296,8.06296 0,4.45277 3.61019,8.06296 8.06296,8.06296 20.56257,0 37.29119,16.72862 37.29119,37.29119 v 153.64272 c 0,13.33815 -10.85173,24.18888 -24.18888,24.18888 -13.33714,0 -24.18888,-10.85073 -24.18888,-24.18888 0,-4.45277 -3.61019,-8.06296 -8.06296,-8.06296 -4.45277,0 -8.06296,3.61019 -8.06296,8.06296 0,22.22958 18.08521,40.3148 40.31479,40.3148 9.06883,0 17.44624,-3.01151 24.18889,-8.08513 v 32.22664 c 0,34.45605 -28.03189,62.48794 -62.48795,62.48794 z M 460.5971,393.06627 c -8.89143,0 -16.12592,-7.23348 -16.12592,-16.12592 0,-8.89243 7.23449,-16.12592 16.12592,-16.12592 8.89144,0 16.12592,7.23349 16.12592,16.12592 0,8.89244 -7.23448,16.12592 -16.12592,16.12592 z"
     id="path12"
     style="stroke-width:1.00787" />
</svg>
